<?xml version="1.0" encoding="UTF-8"?>
<svg xmlns="http://www.w3.org/2000/svg" version="1.1" viewBox="0 0 612 612">
  <!-- Generator: Adobe Illustrator 30.1.0, SVG Export Plug-In . SVG Version: 2.1.1 Build 136)  -->
  <defs>
    <style>
      .st0 {
        fill: #231f20;
      }

      .st1 {
        fill: #7f3f98;
      }

      .st2 {
        fill: #8c0052;
      }

      .st3 {
        fill: #ec008c;
      }

      .st4 {
        fill: #45085d;
      }

      .st5 {
        display: none;
      }

      .st6 {
        fill: #00aeef;
      }
    </style>
  </defs>
  <g id="Layer_1">
    <rect class="st1" x="0" width="61.2" height="61.2"/>
    <rect class="st6" x="61.2" width="61.2" height="61.2"/>
    <rect class="st1" x="122.4" width="61.2" height="61.2"/>
    <rect class="st6" x="183.6" width="61.2" height="61.2"/>
    <rect class="st1" x="244.8" width="61.2" height="61.2"/>
    <rect class="st6" x="306" width="61.2" height="61.2"/>
    <rect class="st1" x="367.2" width="61.2" height="61.2"/>
    <rect class="st6" x="428.4" width="61.2" height="61.2"/>
    <rect class="st1" x="489.6" width="61.2" height="61.2"/>
    <rect class="st6" x="550.8" width="61.2" height="61.2"/>
    <rect class="st6" x="0" y="61.2" width="61.2" height="61.2"/>
    <rect class="st1" x="61.2" y="61.2" width="61.2" height="61.2"/>
    <rect class="st6" x="122.4" y="61.2" width="61.2" height="61.2"/>
    <rect class="st1" x="183.6" y="61.2" width="61.2" height="61.2"/>
    <rect class="st3" x="244.8" y="61.2" width="61.2" height="61.2"/>
    <rect class="st3" x="306" y="61.2" width="61.2" height="61.2"/>
    <rect class="st3" x="367.2" y="61.2" width="61.2" height="61.2"/>
    <rect class="st1" x="428.4" y="61.2" width="61.2" height="61.2"/>
    <rect class="st6" x="489.6" y="61.2" width="61.2" height="61.2"/>
    <rect class="st1" x="550.8" y="61.2" width="61.2" height="61.2"/>
    <rect class="st1" x="0" y="122.4" width="61.2" height="61.2"/>
    <rect class="st6" x="61.2" y="122.4" width="61.2" height="61.2"/>
    <rect class="st1" x="122.4" y="122.4" width="61.2" height="61.2"/>
    <rect class="st6" x="183.6" y="122.4" width="61.2" height="61.2"/>
    <rect class="st1" x="244.8" y="122.4" width="61.2" height="61.2"/>
    <rect class="st6" x="306" y="122.4" width="61.2" height="61.2"/>
    <rect class="st2" x="367.2" y="122.4" width="61.2" height="61.2"/>
    <rect class="st3" x="428.4" y="122.4" width="61.2" height="61.2"/>
    <rect class="st1" x="489.6" y="122.4" width="61.2" height="61.2"/>
    <rect class="st6" x="550.8" y="122.4" width="61.2" height="61.2"/>
    <rect class="st6" x="0" y="183.6" width="61.2" height="61.2"/>
    <rect class="st1" x="61.2" y="183.6" width="61.2" height="61.2"/>
    <rect class="st6" x="122.4" y="183.6" width="61.2" height="61.2"/>
    <rect class="st1" x="183.6" y="183.6" width="61.2" height="61.2"/>
    <rect class="st6" x="244.8" y="183.6" width="61.2" height="61.2"/>
    <rect class="st2" x="306" y="183.6" width="61.2" height="61.2"/>
    <rect class="st6" x="367.2" y="183.6" width="61.2" height="61.2"/>
    <rect class="st3" x="428.4" y="183.6" width="61.2" height="61.2"/>
    <rect class="st6" x="489.6" y="183.6" width="61.2" height="61.2"/>
    <rect class="st1" x="550.8" y="183.6" width="61.2" height="61.2"/>
    <rect class="st1" x="0" y="244.8" width="61.2" height="61.2"/>
    <rect class="st6" x="61.2" y="244.8" width="61.2" height="61.2"/>
    <rect class="st3" x="122.4" y="244.8" width="61.2" height="61.2"/>
    <rect class="st6" x="183.6" y="244.8" width="61.2" height="61.2"/>
    <rect class="st1" x="244.8" y="244.8" width="61.2" height="61.2"/>
    <rect class="st2" x="306" y="244.8" width="61.2" height="61.2"/>
    <rect class="st1" x="367.2" y="244.8" width="61.2" height="61.2"/>
    <rect class="st3" x="428.4" y="244.8" width="61.2" height="61.2"/>
    <rect class="st1" x="489.6" y="244.8" width="61.2" height="61.2"/>
    <rect class="st6" x="550.8" y="244.8" width="61.2" height="61.2"/>
    <rect class="st6" x="0" y="306" width="61.2" height="61.2"/>
    <rect class="st1" x="61.2" y="306" width="61.2" height="61.2"/>
    <rect class="st3" x="122.4" y="306" width="61.2" height="61.2"/>
    <rect class="st1" x="183.6" y="306" width="61.2" height="61.2"/>
    <rect class="st2" x="244.8" y="306" width="61.2" height="61.2"/>
    <rect class="st1" x="306" y="306" width="61.2" height="61.2"/>
    <rect class="st6" x="367.2" y="306" width="61.2" height="61.2"/>
    <rect class="st3" x="428.4" y="306" width="61.2" height="61.2"/>
    <rect class="st6" x="489.6" y="306" width="61.2" height="61.2"/>
    <rect class="st1" x="550.8" y="306" width="61.2" height="61.2"/>
    <rect class="st1" x="0" y="367.2" width="61.2" height="61.2"/>
    <rect class="st6" x="61.2" y="367.2" width="61.2" height="61.2"/>
    <rect class="st3" x="122.4" y="367.2" width="61.2" height="61.2"/>
    <rect class="st6" x="183.6" y="367.2" width="61.2" height="61.2"/>
    <rect class="st2" x="244.8" y="367.2" width="61.2" height="61.2"/>
    <rect class="st6" x="306" y="367.2" width="61.2" height="61.2"/>
    <rect class="st1" x="367.2" y="367.2" width="61.2" height="61.2"/>
    <rect class="st6" x="428.4" y="367.2" width="61.2" height="61.2"/>
    <rect class="st1" x="489.6" y="367.2" width="61.2" height="61.2"/>
    <rect class="st6" x="550.8" y="367.2" width="61.2" height="61.2"/>
    <rect class="st6" x="0" y="428.4" width="61.2" height="61.2"/>
    <rect class="st1" x="61.2" y="428.4" width="61.2" height="61.2"/>
    <rect class="st3" x="122.4" y="428.4" width="61.2" height="61.2"/>
    <rect class="st2" x="183.6" y="428.4" width="61.2" height="61.2"/>
    <rect class="st6" x="244.8" y="428.4" width="61.2" height="61.2"/>
    <rect class="st1" x="306" y="428.4" width="61.2" height="61.2"/>
    <rect class="st6" x="367.2" y="428.4" width="61.2" height="61.2"/>
    <rect class="st1" x="428.4" y="428.4" width="61.2" height="61.2"/>
    <rect class="st6" x="489.6" y="428.4" width="61.2" height="61.2"/>
    <rect class="st1" x="550.8" y="428.4" width="61.2" height="61.2"/>
    <rect class="st1" x="0" y="489.6" width="61.2" height="61.2"/>
    <rect class="st6" x="61.2" y="489.6" width="61.2" height="61.2"/>
    <rect class="st1" x="122.4" y="489.6" width="61.2" height="61.2"/>
    <rect class="st3" x="183.6" y="489.6" width="61.2" height="61.2"/>
    <rect class="st3" x="244.8" y="489.6" width="61.2" height="61.2"/>
    <rect class="st3" x="306" y="489.6" width="61.2" height="61.2"/>
    <rect class="st1" x="367.2" y="489.6" width="61.2" height="61.2"/>
    <rect class="st6" x="428.4" y="489.6" width="61.2" height="61.2"/>
    <rect class="st1" x="489.6" y="489.6" width="61.2" height="61.2"/>
    <rect class="st6" x="550.8" y="489.6" width="61.2" height="61.2"/>
    <rect class="st6" x="0" y="550.8" width="61.2" height="61.2"/>
    <rect class="st1" x="61.2" y="550.8" width="61.2" height="61.2"/>
    <rect class="st6" x="122.4" y="550.8" width="61.2" height="61.2"/>
    <rect class="st1" x="183.6" y="550.8" width="61.2" height="61.2"/>
    <rect class="st6" x="244.8" y="550.8" width="61.2" height="61.2"/>
    <rect class="st1" x="306" y="550.8" width="61.2" height="61.2"/>
    <rect class="st6" x="367.2" y="550.8" width="61.2" height="61.2"/>
    <rect class="st1" x="428.4" y="550.8" width="61.2" height="61.2"/>
    <rect class="st6" x="489.6" y="550.8" width="61.2" height="61.2"/>
    <rect class="st1" x="550.8" y="550.8" width="61.2" height="61.2"/>
    <g class="st5">
      <path class="st0" d="M306,612h306v-306c0,169-137,306-306,306Z"/>
      <path class="st0" d="M0,306v306h306C137,612,0,475,0,306Z"/>
      <path class="st0" d="M306,0H0v306C0,137,137,0,306,0Z"/>
      <path class="st0" d="M306,0C475,0,612,137,612,306V0h-306Z"/>
    </g>
    <path class="st2" d="M409.11,485.61c13.62-6,17.63-21.04,18.8-58.69,1.04-33.29,28.38-59.72,61.69-59.72h0c0,122.4,0,183.6-122.4,183.6v-2.52c0-27.45,16.79-51.6,41.91-62.67Z"/>
    <path class="st2" d="M122.4,244.8c0-122.4,0-183.6,122.4-183.6v2.52c0,27.45-16.79,51.6-41.91,62.67-13.62,6-17.63,21.04-18.8,58.69-1.04,33.29-28.38,59.72-61.69,59.72h0Z"/>
    <path class="st2" d="M367.2,306q-61.2,0-61.2,61.2l-61.2-61.2q61.2,0,61.2-61.2"/>
    <path class="st2" d="M306,183.6l61.2,61.2q0-61.2,61.2-61.2l-61.2-61.2q0,61.2-61.2,61.2Z"/>
    <path class="st2" d="M244.8,367.2q0,61.2-61.2,61.2l61.2,61.2q0-61.2,61.2-61.2l-61.2-61.2Z"/>
    <polygon class="st3" points="428.4 61.2 489.6 122.4 428.4 122.4 428.4 61.2"/>
    <polygon class="st3" points="122.4 489.6 183.6 489.6 183.6 550.8 122.4 489.6"/>
    <path class="st4" d="M372.28,306l12.56-12.56c24.06-24.06,24.06-63.06,0-87.12l-35.28-35.28c-24.06-24.06-63.06-24.06-87.12,0l-35.28,35.28c-24.06,24.06-24.06,63.06,0,87.12l12.56,12.56-12.56,12.56c-24.06,24.06-24.06,63.06,0,87.12l35.28,35.28c24.06,24.06,63.06,24.06,87.12,0l35.28-35.28c24.06-24.06,24.06-63.06,0-87.12l-12.56-12.56ZM347.95,328.36l3.31,6.62c9.62,19.24,5.85,42.49-9.36,57.7l-.38.38c-19.52,19.52-51.17,19.52-70.69,0l-.73-.73c-15.04-15.04-18.92-37.96-9.66-57.11l4.24-8.77c6.86-14.18,6.63-30.75-.61-44.74l-2.3-4.43c-10.01-19.34-6.35-42.93,9.05-58.32h0c19.52-19.52,51.17-19.52,70.69,0l.38.38c15.21,15.21,18.99,38.46,9.36,57.7l-3.31,6.62c-7.04,14.07-7.04,30.64,0,44.71Z"/>
    <ellipse class="st4" cx="306" cy="260.1" rx="30.6" ry="45.9"/>
    <ellipse class="st4" cx="306" cy="351.9" rx="30.6" ry="45.9"/>
  </g>
  <g id="Layer_2" class="st5">
    <path class="st1" d="M183.6,25.49c-21.85,9.55-42.37,21.55-61.2,35.7h0s61.2.01,61.2.01V25.49Z"/>
    <path class="st6" d="M183.6,25.49v35.71h48.42c4.11-.16,8.36-.25,12.78-.25V6.13c-21.29,4.32-41.77,10.87-61.2,19.36Z"/>
    <path class="st1" d="M244.8,6.13v55.07h61.2V0C285.04,0,264.57,2.11,244.8,6.13Z"/>
    <path class="st6" d="M306,61.2h61.2V6.13C347.43,2.11,326.96,0,306,0v61.2Z"/>
    <path class="st1" d="M367.2,61.2h61.2V25.49c-19.43-8.49-39.91-15.04-61.2-19.36v55.07Z"/>
    <path class="st6" d="M428.4,61.2h61.2c-18.83-14.16-39.35-26.17-61.2-35.71v35.71Z"/>
    <path class="st1" d="M61.2,122.38v.02h61.2v-61.2h-.02c-23.17,17.4-43.78,38.02-61.18,61.18Z"/>
    <path class="st6" d="M183.6,68.78v-7.58h-61.2v61.2h9.17c8.09-26.35,23.34-44.22,52.03-53.62Z"/>
    <path class="st1" d="M210.22,122.4h34.58v-58.93c0,24.68-13.58,46.69-34.58,58.93Z"/>
    <path class="st1" d="M183.6,61.2v7.58c13.12-4.3,29.07-6.82,48.42-7.58h-48.42Z"/>
    <path class="st6" d="M489.62,61.2h-.02v61.2h61.2v-.02c-17.4-23.17-38.02-43.78-61.18-61.18Z"/>
    <path class="st1" d="M61.2,183.6v-61.2h-.01c-14.15,18.83-26.15,39.35-35.7,61.2h35.71Z"/>
    <rect class="st6" x="61.2" y="122.4" width="61.2" height="61.2"/>
    <path class="st1" d="M122.4,122.4v61.2h.75c.98-23.89,3.22-44.29,8.42-61.2h-9.17Z"/>
    <path class="st4" d="M336.25,344.91c-.15-1.52-.36-3.01-.61-4.48-.63-3.67-1.55-7.16-2.73-10.41-.71-1.95-1.5-3.82-2.39-5.58-1.17-2.36-2.5-4.54-3.95-6.51-5.43-7.41-12.65-11.92-20.57-11.92s-15.14,4.52-20.57,11.92c-1.45,1.98-2.77,4.16-3.95,6.51-.88,1.77-1.68,3.63-2.39,5.58-1.18,3.25-2.1,6.74-2.73,10.41-.25,1.47-.46,2.96-.61,4.48-.23,2.28-.35,4.61-.35,6.99s.12,4.71.35,6.99c.15,1.52.36,3.01.61,4.48.63,3.67,1.55,7.16,2.73,10.41.71,1.95,1.5,3.82,2.39,5.58,1.17,2.36,2.5,4.54,3.95,6.51,5.43,7.41,12.65,11.92,20.57,11.92s15.14-4.52,20.57-11.92c1.45-1.98,2.77-4.16,3.95-6.51.88-1.77,1.68-3.63,2.39-5.58,1.18-3.25,2.1-6.74,2.73-10.41.25-1.47.46-2.96.61-4.48.23-2.28.35-4.61.35-6.99s-.12-4.71-.35-6.99Z"/>
    <path class="st1" d="M244.8,183.6h5.08l12.56-12.56c3.76-3.76,7.88-6.93,12.26-9.51,2.62-1.55,5.34-2.89,8.12-4.02s5.63-2.04,8.51-2.75c1.92-.47,3.87-.85,5.82-1.13,1.04-.15,2.09-.27,3.14-.37,1.9-.18,3.8-.27,5.71-.27v-30.6h-61.2v61.2Z"/>
    <path class="st6" d="M306,153c1.97,0,3.94.09,5.9.28,2.94.28,5.87.78,8.76,1.48,1.92.47,3.83,1.03,5.71,1.69,3.76,1.32,7.42,3.01,10.92,5.07,1.75,1.03,3.46,2.16,5.12,3.38,2.49,1.83,4.88,3.88,7.14,6.13l7.17,7.17c10.47-6.72,10.48-21.83,10.48-55.81h-61.2v30.6Z"/>
    <rect class="st1" x="489.6" y="122.4" width="61.2" height="61.2"/>
    <path class="st6" d="M550.8,122.4v61.2h35.71c-9.55-21.85-21.55-42.37-35.7-61.2h-.01Z"/>
    <path class="st6" d="M61.2,244.8v-61.2H25.49c-8.49,19.43-15.04,39.91-19.36,61.2h55.07Z"/>
    <rect class="st1" x="61.2" y="183.6" width="61.2" height="61.2"/>
    <path class="st6" d="M122.4,244.55h0v.25h61.2v-53.9c-3.95,30.38-29.95,53.65-61.2,53.65Z"/>
    <path class="st1" d="M183.6,190.9v53.9h25.74c.07-.82.15-1.64.25-2.45.01-.09.02-.18.03-.28.1-.77.21-1.54.34-2.31.02-.13.04-.27.07-.4.13-.75.27-1.49.43-2.24.03-.14.06-.29.09-.43.16-.74.33-1.48.52-2.22.03-.12.07-.25.1-.37.2-.76.41-1.52.64-2.27,0-.02.01-.04.02-.07.73-2.38,1.61-4.71,2.63-7,.07-.16.14-.32.21-.48.25-.54.51-1.07.77-1.6.16-.33.32-.67.49-1,.24-.47.5-.94.75-1.4.21-.39.42-.77.64-1.15.25-.43.5-.85.76-1.28.25-.41.51-.82.77-1.23.25-.4.51-.79.78-1.18.29-.43.59-.86.89-1.28.26-.36.52-.72.79-1.08.34-.45.69-.9,1.04-1.35.26-.32.51-.65.77-.96.41-.5.84-.99,1.27-1.48.23-.26.44-.52.67-.77.67-.74,1.36-1.47,2.07-2.18l17.64-17.64v-5.08h-60.67c-.01.41-.03.81-.04,1.23-.06,2.05-.23,4.08-.49,6.07Z"/>
    <polygon class="st6" points="244.8 188.68 249.88 183.6 244.8 183.6 244.8 188.68"/>
    <path class="st6" d="M184.13,183.6h60.67v-61.2h-34.58c-2.35,1.37-4.79,2.63-7.33,3.74-13.47,5.94-17.53,20.72-18.76,57.46Z"/>
    <path class="st6" d="M372.59,194.08l12.25,12.25c.71.71,1.4,1.44,2.07,2.18.23.25.45.51.67.77.43.49.86.98,1.27,1.48.26.32.51.64.77.96.35.45.7.89,1.04,1.35.27.36.53.72.79,1.08.3.43.6.85.89,1.28.26.39.52.79.78,1.18.26.41.52.82.77,1.23.26.42.52.85.76,1.28.22.38.43.77.64,1.15.26.47.51.93.75,1.4.17.33.33.66.49,1,.26.53.53,1.06.77,1.6.07.16.14.32.21.48,1.02,2.29,1.9,4.63,2.63,7,0,.02.01.04.02.07.23.75.44,1.51.64,2.27.03.12.07.25.1.37.19.74.36,1.48.52,2.22.03.14.06.29.09.43.16.74.3,1.49.43,2.24.02.13.05.27.07.4.13.77.24,1.54.34,2.31.01.09.02.18.03.28.1.82.19,1.63.25,2.45h25.74v-61.2c-33.98,0-49.08,0-55.81,10.48Z"/>
    <rect class="st6" x="489.6" y="183.6" width="61.2" height="61.2"/>
    <path class="st1" d="M550.8,183.6v61.2h55.07c-4.32-21.29-10.87-41.77-19.36-61.2h-35.71Z"/>
    <path class="st1" d="M61.2,306v-61.2H6.13c-4.01,19.77-6.13,40.24-6.13,61.2h61.2Z"/>
    <rect class="st6" x="61.2" y="244.8" width="61.2" height="61.2"/>
    <path class="st6" d="M224.85,291.01c-.24-.27-.46-.54-.7-.81-.49-.57-.98-1.14-1.45-1.72-.26-.32-.51-.65-.76-.98-.42-.55-.84-1.09-1.24-1.65-.25-.34-.48-.69-.72-1.04-.38-.56-.76-1.12-1.13-1.68-.22-.35-.44-.7-.66-1.05-.36-.58-.71-1.17-1.05-1.77-.19-.34-.38-.68-.57-1.02-.34-.63-.67-1.27-.99-1.91-.15-.31-.31-.62-.46-.93-.34-.71-.66-1.43-.97-2.16-.11-.25-.22-.49-.32-.74-.37-.88-.71-1.77-1.03-2.66-.03-.1-.07-.19-.11-.28-1.11-3.1-1.95-6.28-2.55-9.49,0,0,0,0,0-.01-.19-1.05-.36-2.1-.49-3.15-.01-.08-.02-.17-.03-.25-.13-.98-.23-1.97-.3-2.96,0-.11-.02-.22-.02-.33-.07-.97-.12-1.95-.15-2.92,0-.1,0-.21,0-.31-.02-1-.02-1.99,0-2.99,0-.07,0-.14,0-.22.03-1.06.09-2.12.18-3.18h-25.74v61.2h56.12s-12.56-12.56-12.56-12.56c-.8-.8-1.56-1.61-2.3-2.44Z"/>
    <path class="st1" d="M275.4,260.1c0-5.37.62-10.51,1.75-15.3h-20.05c-2.08,10.78-.62,22.22,4.68,32.47l2.3,4.43c3.89,7.52,5.74,15.8,5.56,24.05,10.74-.39,18.31-1.37,23.65-3.9-10.55-7.24-17.89-23.21-17.89-41.75Z"/>
    <path class="st1" d="M402.84,247.98c0,.07,0,.14,0,.21.03,1,.03,1.99,0,2.99,0,.1,0,.21,0,.31-.03.97-.07,1.95-.15,2.92,0,.11-.01.22-.02.33-.08.99-.18,1.97-.3,2.96-.01.08-.02.17-.03.25-.14,1.05-.3,2.11-.49,3.15,0,0,0,0,0,.01-.59,3.21-1.44,6.39-2.55,9.49-.03.1-.07.19-.11.28-.32.89-.67,1.78-1.03,2.66-.1.25-.21.49-.32.74-.31.72-.63,1.44-.97,2.16-.15.31-.31.62-.46.93-.32.64-.65,1.28-.99,1.91-.19.34-.38.68-.57,1.02-.34.59-.69,1.18-1.05,1.77-.22.35-.43.7-.66,1.05-.36.57-.74,1.13-1.13,1.68-.24.35-.48.7-.72,1.04-.4.56-.82,1.1-1.24,1.65-.25.33-.5.66-.76.98-.47.58-.96,1.15-1.45,1.72-.23.27-.46.54-.7.81-.74.83-1.51,1.64-2.3,2.44l-12.56,12.56h0s56.12,0,56.12,0v-61.2h-25.74c.09,1.06.15,2.12.18,3.18Z"/>
    <rect class="st1" x="489.6" y="244.8" width="61.2" height="61.2"/>
    <path class="st6" d="M550.8,244.8v61.2h61.2c0-20.96-2.11-41.43-6.13-61.2h-55.07Z"/>
    <path class="st6" d="M61.2,367.2v-61.2H0c0,20.96,2.11,41.43,6.13,61.2h55.07Z"/>
    <rect class="st1" x="61.2" y="306" width="61.2" height="61.2"/>
    <path class="st1" d="M209.16,364.02c0-.07,0-.14,0-.22-.03-1-.03-1.99,0-2.99,0-.1,0-.21,0-.31.03-.97.07-1.95.15-2.92,0-.11.01-.22.02-.33.08-.99.18-1.97.3-2.96.01-.08.02-.17.03-.25.14-1.05.3-2.11.49-3.15,0,0,0,0,0-.01.59-3.21,1.44-6.39,2.55-9.49.03-.1.07-.19.11-.29.32-.89.67-1.78,1.03-2.66.1-.25.21-.49.32-.74.31-.72.63-1.44.97-2.16.15-.31.31-.62.46-.93.32-.64.65-1.28.99-1.91.19-.34.38-.68.57-1.02.34-.59.69-1.18,1.05-1.77.22-.35.43-.7.66-1.05.36-.57.74-1.13,1.13-1.68.24-.35.48-.69.72-1.04.4-.56.82-1.1,1.24-1.65.25-.33.5-.66.76-.98.47-.58.96-1.15,1.45-1.72.23-.27.46-.54.7-.81.74-.83,1.51-1.64,2.3-2.44l12.56-12.56h-56.12v61.2h25.74c-.09-1.06-.15-2.12-.18-3.18Z"/>
    <path class="st1" d="M336.6,351.9c0,5.37-.62,10.51-1.75,15.3h20.7c2.15-10.67.81-22.01-4.29-32.23l-3.31-6.62c-3.48-6.96-5.23-14.54-5.27-22.12-10.91.38-18.58,1.36-23.97,3.91,10.55,7.24,17.89,23.21,17.89,41.75Z"/>
    <path class="st6" d="M387.15,320.99c.24.27.46.54.7.81.49.57.98,1.14,1.45,1.72.26.32.51.65.76.98.42.55.84,1.09,1.24,1.65.25.34.48.69.72,1.04.38.56.76,1.12,1.13,1.68.22.35.44.7.66,1.05.36.59.71,1.17,1.05,1.77.19.34.38.68.57,1.02.34.63.67,1.27.99,1.91.15.31.31.62.46.93.34.71.66,1.43.97,2.16.11.25.22.49.32.74.37.88.71,1.77,1.03,2.66.03.1.07.19.11.29,1.11,3.1,1.95,6.28,2.55,9.49,0,0,0,0,0,.01.19,1.05.36,2.1.49,3.15.01.08.02.17.03.25.13.98.23,1.97.3,2.96,0,.11.02.22.02.33.07.97.12,1.95.15,2.92,0,.1,0,.21,0,.31.02,1,.02,1.99,0,2.99,0,.07,0,.14,0,.21-.03,1.06-.09,2.12-.18,3.18h25.74v-61.2h-56.12l12.56,12.56c.8.8,1.56,1.61,2.3,2.44Z"/>
    <rect class="st6" x="489.6" y="306" width="61.2" height="61.2"/>
    <path class="st1" d="M550.8,306v61.2h55.07c4.01-19.77,6.13-40.24,6.13-61.2h-61.2Z"/>
    <path class="st1" d="M61.2,428.4v-61.2H6.13c4.32,21.29,10.87,41.77,19.36,61.2h35.71Z"/>
    <rect class="st6" x="61.2" y="367.2" width="61.2" height="61.2"/>
    <path class="st6" d="M239.41,417.92l-12.25-12.25c-.71-.71-1.4-1.44-2.07-2.18-.23-.25-.45-.51-.67-.77-.43-.49-.86-.98-1.27-1.48-.26-.32-.51-.64-.77-.96-.35-.45-.7-.89-1.04-1.35-.27-.36-.53-.72-.78-1.08-.3-.43-.6-.85-.9-1.28-.26-.39-.52-.78-.78-1.18-.26-.41-.52-.82-.77-1.23-.26-.42-.51-.85-.76-1.28-.22-.38-.43-.77-.64-1.15-.26-.47-.51-.93-.75-1.4-.17-.33-.33-.66-.49-1-.26-.53-.53-1.06-.77-1.6-.07-.16-.14-.32-.21-.48-1.02-2.29-1.9-4.63-2.63-7.01,0-.02-.01-.04-.02-.07-.23-.75-.44-1.51-.64-2.27-.03-.12-.07-.25-.1-.37-.19-.74-.36-1.47-.52-2.22-.03-.14-.06-.29-.09-.43-.16-.74-.3-1.49-.43-2.23-.02-.13-.05-.27-.07-.4-.13-.77-.24-1.54-.34-2.31-.01-.09-.02-.18-.03-.28-.1-.82-.19-1.63-.25-2.45h-25.74v61.2c33.98,0,49.08,0,55.81-10.48Z"/>
    <polygon class="st6" points="367.2 423.32 362.12 428.4 367.2 428.4 367.2 423.32"/>
    <path class="st6" d="M341.9,392.68c7.14-7.14,11.76-16.05,13.66-25.48h-20.7c-4.2,17.83-15.53,30.6-28.85,30.6v9.89c12.85.05,25.72-4.83,35.52-14.64l.38-.38Z"/>
    <path class="st1" d="M428.4,420.6v-53.4h-25.74c-.07.82-.15,1.64-.25,2.45-.01.09-.02.18-.03.28-.1.77-.21,1.54-.34,2.31-.02.13-.04.27-.07.4-.13.75-.27,1.49-.43,2.23-.03.14-.06.29-.09.43-.16.74-.33,1.48-.52,2.22-.03.12-.07.25-.1.37-.2.76-.41,1.52-.64,2.27,0,.02-.01.04-.02.07-.73,2.38-1.61,4.71-2.63,7.01-.07.16-.14.32-.21.48-.25.54-.51,1.07-.77,1.6-.16.33-.32.67-.49,1-.24.47-.5.94-.75,1.4-.21.39-.42.77-.64,1.15-.25.43-.5.85-.76,1.28-.25.41-.51.82-.77,1.23-.25.4-.51.79-.78,1.18-.29.43-.59.86-.9,1.28-.26.36-.52.72-.78,1.08-.34.45-.69.9-1.04,1.35-.26.32-.51.65-.77.96-.41.5-.84.99-1.27,1.48-.23.26-.44.52-.67.77-.67.74-1.36,1.47-2.07,2.18l-17.64,17.64v5.08h60.65c.02-.58.04-1.14.06-1.73.06-2.05.23-4.08.49-6.07Z"/>
    <path class="st6" d="M484.17,367.2h-55.77v53.4c3.72-28.6,26.98-50.89,55.77-53.4Z"/>
    <rect class="st1" x="489.6" y="367.2" width="61.2" height="61.2"/>
    <path class="st6" d="M550.8,367.2v61.2h35.71c8.49-19.43,15.04-39.91,19.36-61.2h-55.07Z"/>
    <path class="st6" d="M61.2,489.6v-61.2H25.49c9.55,21.85,21.55,42.37,35.7,61.2h.01Z"/>
    <rect class="st1" x="61.2" y="428.4" width="61.2" height="61.2"/>
    <path class="st6" d="M297.16,458.37c-1.95-.28-3.9-.66-5.82-1.13s-3.83-1.03-5.71-1.69c-3.76-1.32-7.42-3.01-10.92-5.07-1.75-1.03-3.46-2.16-5.12-3.38-2.49-1.83-4.88-3.88-7.14-6.13l-7.17-7.17c-10.47,6.72-10.48,21.83-10.48,55.81h61.2v-30.6c-2.96,0-5.91-.21-8.84-.63Z"/>
    <path class="st1" d="M367.2,428.4h-5.08l-12.56,12.56c-2.26,2.26-4.64,4.3-7.14,6.13-1.66,1.22-3.37,2.35-5.12,3.38-1.75,1.03-3.54,1.97-5.36,2.82s-3.68,1.6-5.56,2.26c-1.88.66-3.79,1.22-5.71,1.69s-3.87.85-5.82,1.13c-2.93.42-5.89.63-8.84.63v30.6h61.2v-61.2Z"/>
    <path class="st6" d="M427.85,428.4h-60.65v61.2h33.75c2.61-1.57,5.33-2.99,8.16-4.24,13.41-5.91,17.5-20.59,18.74-56.96Z"/>
    <path class="st1" d="M480.28,489.6h9.32v-61.2h-.77c-1,23.91-3.29,44.31-8.55,61.2Z"/>
    <rect class="st6" x="489.6" y="428.4" width="61.2" height="61.2"/>
    <path class="st1" d="M550.8,428.4v61.2h.01c14.15-18.83,26.15-39.35,35.7-61.2h-35.71Z"/>
    <path class="st6" d="M122.38,550.8h.02v-61.2h-61.2v.02c17.4,23.17,38.02,43.78,61.18,61.18Z"/>
    <path class="st1" d="M367.2,550.8h61.2v-8.07c-15.91,5.21-35.94,7.83-61.2,7.83v.25Z"/>
    <path class="st1" d="M400.95,489.6h-33.75v58.43c0-24.35,13.23-46.1,33.75-58.43Z"/>
    <path class="st6" d="M428.4,542.73v8.07h61.2v-61.2h-9.32c-8.13,26.08-23.37,43.79-51.88,53.13Z"/>
    <path class="st1" d="M550.8,489.62v-.02h-61.2v61.2h.02c23.17-17.4,43.78-38.02,61.18-61.18Z"/>
    <path class="st6" d="M183.6,550.8h-61.2c18.83,14.16,39.35,26.17,61.2,35.71v-35.71Z"/>
    <path class="st1" d="M244.8,550.8h-61.2v35.71c19.43,8.49,39.91,15.04,61.2,19.36v-55.07Z"/>
    <path class="st6" d="M244.8,550.8v55.07c19.77,4.01,40.24,6.13,61.2,6.13v-61.2h-61.2Z"/>
    <path class="st1" d="M367.2,550.8h-61.2v61.2c20.96,0,41.43-2.11,61.2-6.13v-55.07Z"/>
    <path class="st6" d="M428.4,550.8h-61.2v55.07c21.29-4.32,41.77-10.87,61.2-19.36v-35.71Z"/>
    <path class="st1" d="M489.6,550.8h-61.2v35.71c21.85-9.55,42.37-21.55,61.2-35.7h0Z"/>
    <path class="st2" d="M489.6,367.2h0c-33.31,0-60.65,26.43-61.69,59.72-1.18,37.65-5.18,52.68-18.8,58.69-25.12,11.07-41.91,35.22-41.91,62.67v2.52c122.4,0,122.4-61.2,122.4-183.6Z"/>
    <path class="st2" d="M122.4,244.8h0c33.31,0,60.65-26.43,61.69-59.72,1.18-37.65,5.18-52.68,18.8-58.69,25.12-11.07,41.91-35.22,41.91-62.67v-2.52c-122.4,0-122.4,61.2-122.4,183.6Z"/>
    <polygon class="st3" points="244.8 489.6 183.6 489.6 183.6 428.4 183.6 244.8 122.4 244.8 122.4 489.6 183.6 550.8 367.2 550.8 367.2 489.6 244.8 489.6"/>
    <polygon class="st3" points="428.4 61.2 244.8 61.2 244.8 122.4 367.2 122.4 428.4 122.4 428.4 183.6 428.4 367.2 489.6 367.2 489.6 122.4 428.4 61.2"/>
    <polygon class="st1" points="489.6 122.4 489.6 61.2 428.4 61.2 489.6 122.4"/>
    <polygon class="st1" points="122.4 489.6 122.4 550.8 183.6 550.8 122.4 489.6"/>
    <path class="st2" d="M255.28,433.79l-15.87-15.87c-6.72,10.47-21.83,10.48-55.81,10.48v61.2h61.2c0-33.98,0-49.08,10.48-55.81Z"/>
    <path class="st2" d="M306,306c-4.54,0-8.84-1.49-12.71-4.15-5.33,2.53-12.9,3.52-23.65,3.9-.15,7.08-1.79,14.14-4.95,20.69l-4.24,8.77c-9.26,19.15-5.39,42.07,9.66,57.11l.73.73c9.72,9.72,22.44,14.59,35.17,14.64v-9.89c-16.9,0-30.6-20.55-30.6-45.9s13.7-45.9,30.6-45.9Z"/>
    <path class="st2" d="M356.72,178.21l15.87,15.87c6.72-10.47,21.83-10.48,55.81-10.48v-61.2h-61.2c0,33.98,0,49.08-10.48,55.81Z"/>
    <path class="st2" d="M306,306c4.54,0,8.84,1.49,12.71,4.15,5.39-2.55,13.06-3.54,23.97-3.91-.04-7.74,1.72-15.48,5.27-22.59l3.31-6.62c9.62-19.24,5.85-42.49-9.36-57.7l-.38-.38c-9.81-9.81-22.67-14.68-35.52-14.64v9.89c16.9,0,30.6,20.55,30.6,45.9s-13.7,45.9-30.6,45.9Z"/>
    <path class="st4" d="M372.28,306l12.56-12.56c24.06-24.06,24.06-63.06,0-87.12l-35.28-35.28c-24.06-24.06-63.06-24.06-87.12,0l-35.28,35.28c-24.06,24.06-24.06,63.06,0,87.12l12.56,12.56-12.56,12.56c-24.06,24.06-24.06,63.06,0,87.12l35.28,35.28c24.06,24.06,63.06,24.06,87.12,0l35.28-35.28c24.06-24.06,24.06-63.06,0-87.12l-12.56-12.56ZM347.95,328.36l3.31,6.62c9.62,19.24,5.85,42.49-9.36,57.7l-.38.38c-19.52,19.52-51.17,19.52-70.69,0l-.73-.73c-15.04-15.04-18.92-37.96-9.66-57.11l4.24-8.77c6.86-14.18,6.63-30.75-.61-44.74l-2.3-4.43c-10.01-19.34-6.35-42.93,9.05-58.32h0c19.52-19.52,51.17-19.52,70.69,0l.38.38c15.21,15.21,18.99,38.46,9.36,57.7l-3.31,6.62c-7.04,14.07-7.04,30.64,0,44.71Z"/>
    <path class="st4" d="M336.25,253.11c-.15-1.52-.36-3.01-.61-4.48-.63-3.67-1.55-7.16-2.73-10.41-.71-1.95-1.5-3.82-2.39-5.58-1.17-2.36-2.5-4.54-3.95-6.51-5.43-7.41-12.65-11.92-20.57-11.92s-15.14,4.52-20.57,11.92c-1.45,1.98-2.77,4.16-3.95,6.51-.88,1.77-1.68,3.63-2.39,5.58-1.18,3.25-2.1,6.74-2.73,10.41-.25,1.47-.46,2.96-.61,4.48-.23,2.28-.35,4.61-.35,6.99,0,4.75.48,9.34,1.38,13.65.3,1.44.64,2.84,1.03,4.22.39,1.37.82,2.71,1.29,4.01.71,1.95,1.5,3.82,2.39,5.58,1.17,2.36,2.5,4.54,3.95,6.51,1.81,2.47,3.82,4.62,5.99,6.38,2.6,2.12,5.43,3.69,8.42,4.61,1.99.61,4.05.93,6.17.93s4.17-.32,6.17-.93c2.99-.92,5.82-2.49,8.42-4.61,2.17-1.77,4.18-3.91,5.99-6.38,1.45-1.98,2.77-4.16,3.95-6.51.88-1.77,1.68-3.63,2.39-5.58.47-1.3.9-2.64,1.29-4.01.39-1.37.73-2.78,1.03-4.22.89-4.31,1.38-8.9,1.38-13.65,0-2.38-.12-4.71-.35-6.99Z"/>
    <path class="st6" d="M270.83,218.95c-7.24,7.24-11.88,16.29-13.73,25.85h20.05c4.2-17.83,15.53-30.6,28.85-30.6v-9.89c-12.73.04-25.45,4.92-35.17,14.64h0Z"/>
    <g>
      <path class="st0" d="M306,612h306v-306c0,169-137,306-306,306Z"/>
      <path class="st0" d="M0,306v306h306C137,612,0,475,0,306Z"/>
      <path class="st0" d="M306,0H0v306C0,137,137,0,306,0Z"/>
      <path class="st0" d="M306,0C475,0,612,137,612,306V0h-306Z"/>
    </g>
  </g>
  <g id="Blue" class="st5">
    <path class="st6" d="M183.6,25.49v35.71h48.42c4.11-.16,8.36-.25,12.78-.25V6.13c-21.29,4.32-41.77,10.87-61.2,19.36Z"/>
    <path class="st6" d="M306,61.2h61.2V6.13C347.43,2.11,326.96,0,306,0v61.2Z"/>
    <path class="st6" d="M428.4,61.2h61.2c-18.83-14.16-39.35-26.17-61.2-35.71v35.71Z"/>
    <path class="st6" d="M183.6,68.78v-7.58h-61.2v61.2h9.17c8.09-26.35,23.34-44.22,52.03-53.62Z"/>
    <path class="st6" d="M489.62,61.2h-.02v61.2h61.2v-.02c-17.4-23.17-38.02-43.78-61.18-61.18Z"/>
    <rect class="st6" x="61.2" y="122.4" width="61.2" height="61.2"/>
    <path class="st6" d="M306,153c1.97,0,3.94.09,5.9.28,2.94.28,5.87.78,8.76,1.48,1.92.47,3.83,1.03,5.71,1.69,3.76,1.32,7.42,3.01,10.92,5.07,1.75,1.03,3.46,2.16,5.12,3.38,2.49,1.83,4.88,3.88,7.14,6.13l7.17,7.17c10.47-6.72,10.48-21.83,10.48-55.81h-61.2v30.6Z"/>
    <path class="st6" d="M550.8,122.4v61.2h35.71c-9.55-21.85-21.55-42.37-35.7-61.2h-.01Z"/>
    <path class="st6" d="M61.2,244.8v-61.2H25.49c-8.49,19.43-15.04,39.91-19.36,61.2h55.07Z"/>
    <path class="st6" d="M122.4,244.55h0v.25h61.2v-53.9c-3.95,30.38-29.95,53.65-61.2,53.65Z"/>
    <polygon class="st6" points="244.8 188.68 249.88 183.6 244.8 183.6 244.8 188.68"/>
    <path class="st6" d="M184.13,183.6h60.67v-61.2h-34.58c-2.35,1.37-4.79,2.63-7.33,3.74-13.47,5.94-17.53,20.72-18.76,57.46Z"/>
    <path class="st6" d="M372.59,194.08l12.25,12.25c.71.71,1.4,1.44,2.07,2.18.23.25.45.51.67.77.43.49.86.98,1.27,1.48.26.32.51.64.77.96.35.45.7.89,1.04,1.35.27.36.53.72.79,1.08.3.43.6.85.89,1.28.26.39.52.79.78,1.18.26.41.52.82.77,1.23.26.42.52.85.76,1.28.22.38.43.77.64,1.15.26.47.51.93.75,1.4.17.33.33.66.49,1,.26.53.53,1.06.77,1.6.07.16.14.32.21.48,1.02,2.29,1.9,4.63,2.63,7,0,.02.01.04.02.07.23.75.44,1.51.64,2.27.03.12.07.25.1.37.19.74.36,1.48.52,2.22.03.14.06.29.09.43.16.74.3,1.49.43,2.24.02.13.05.27.07.4.13.77.24,1.54.34,2.31.01.09.02.18.03.28.1.82.19,1.63.25,2.45h25.74v-61.2c-33.98,0-49.08,0-55.81,10.48Z"/>
    <rect class="st6" x="489.6" y="183.6" width="61.2" height="61.2"/>
    <rect class="st6" x="61.2" y="244.8" width="61.2" height="61.2"/>
    <path class="st6" d="M224.85,291.01c-.24-.27-.46-.54-.7-.81-.49-.57-.98-1.14-1.45-1.72-.26-.32-.51-.65-.76-.98-.42-.55-.84-1.09-1.24-1.65-.25-.34-.48-.69-.72-1.04-.38-.56-.76-1.12-1.13-1.68-.22-.35-.44-.7-.66-1.05-.36-.58-.71-1.17-1.05-1.77-.19-.34-.38-.68-.57-1.02-.34-.63-.67-1.27-.99-1.91-.15-.31-.31-.62-.46-.93-.34-.71-.66-1.43-.97-2.16-.11-.25-.22-.49-.32-.74-.37-.88-.71-1.77-1.03-2.66-.03-.1-.07-.19-.11-.28-1.11-3.1-1.95-6.28-2.55-9.49,0,0,0,0,0-.01-.19-1.05-.36-2.1-.49-3.15-.01-.08-.02-.17-.03-.25-.13-.98-.23-1.97-.3-2.96,0-.11-.02-.22-.02-.33-.07-.97-.12-1.95-.15-2.92,0-.1,0-.21,0-.31-.02-1-.02-1.99,0-2.99,0-.07,0-.14,0-.22.03-1.06.09-2.12.18-3.18h-25.74v61.2h56.12s-12.56-12.56-12.56-12.56c-.8-.8-1.56-1.61-2.3-2.44Z"/>
    <path class="st6" d="M550.8,244.8v61.2h61.2c0-20.96-2.11-41.43-6.13-61.2h-55.07Z"/>
    <path class="st6" d="M61.2,367.2v-61.2H0c0,20.96,2.11,41.43,6.13,61.2h55.07Z"/>
    <path class="st6" d="M387.15,320.99c.24.27.46.54.7.81.49.57.98,1.14,1.45,1.72.26.32.51.65.76.98.42.55.84,1.09,1.24,1.65.25.34.48.69.72,1.04.38.56.76,1.12,1.13,1.68.22.35.44.7.66,1.05.36.59.71,1.17,1.05,1.77.19.34.38.68.57,1.02.34.63.67,1.27.99,1.91.15.31.31.62.46.93.34.71.66,1.43.97,2.16.11.25.22.49.32.74.37.88.71,1.77,1.03,2.66.03.1.07.19.11.29,1.11,3.1,1.95,6.28,2.55,9.49,0,0,0,0,0,.01.19,1.05.36,2.1.49,3.15.01.08.02.17.03.25.13.98.23,1.97.3,2.96,0,.11.02.22.02.33.07.97.12,1.95.15,2.92,0,.1,0,.21,0,.31.02,1,.02,1.99,0,2.99,0,.07,0,.14,0,.21-.03,1.06-.09,2.12-.18,3.18h25.74v-61.2h-56.12l12.56,12.56c.8.8,1.56,1.61,2.3,2.44Z"/>
    <rect class="st6" x="489.6" y="306" width="61.2" height="61.2"/>
    <rect class="st6" x="61.2" y="367.2" width="61.2" height="61.2"/>
    <path class="st6" d="M239.41,417.92l-12.25-12.25c-.71-.71-1.4-1.44-2.07-2.18-.23-.25-.45-.51-.67-.77-.43-.49-.86-.98-1.27-1.48-.26-.32-.51-.64-.77-.96-.35-.45-.7-.89-1.04-1.35-.27-.36-.53-.72-.78-1.08-.3-.43-.6-.85-.9-1.28-.26-.39-.52-.78-.78-1.18-.26-.41-.52-.82-.77-1.23-.26-.42-.51-.85-.76-1.28-.22-.38-.43-.77-.64-1.15-.26-.47-.51-.93-.75-1.4-.17-.33-.33-.66-.49-1-.26-.53-.53-1.06-.77-1.6-.07-.16-.14-.32-.21-.48-1.02-2.29-1.9-4.63-2.63-7.01,0-.02-.01-.04-.02-.07-.23-.75-.44-1.51-.64-2.27-.03-.12-.07-.25-.1-.37-.19-.74-.36-1.47-.52-2.22-.03-.14-.06-.29-.09-.43-.16-.74-.3-1.49-.43-2.23-.02-.13-.05-.27-.07-.4-.13-.77-.24-1.54-.34-2.31-.01-.09-.02-.18-.03-.28-.1-.82-.19-1.63-.25-2.45h-25.74v61.2c33.98,0,49.08,0,55.81-10.48Z"/>
    <polygon class="st6" points="367.2 423.32 362.12 428.4 367.2 428.4 367.2 423.32"/>
    <path class="st6" d="M341.9,392.68c7.14-7.14,11.76-16.05,13.66-25.48h-20.7c-4.2,17.83-15.53,30.6-28.85,30.6v9.89c12.85.05,25.72-4.83,35.52-14.64l.38-.38Z"/>
    <path class="st6" d="M484.17,367.2h-55.77v53.4c3.72-28.6,26.98-50.89,55.77-53.4Z"/>
    <path class="st6" d="M550.8,367.2v61.2h35.71c8.49-19.43,15.04-39.91,19.36-61.2h-55.07Z"/>
    <path class="st6" d="M61.2,489.6v-61.2H25.49c9.55,21.85,21.55,42.37,35.7,61.2h.01Z"/>
    <path class="st6" d="M297.16,458.37c-1.95-.28-3.9-.66-5.82-1.13s-3.83-1.03-5.71-1.69c-3.76-1.32-7.42-3.01-10.92-5.07-1.75-1.03-3.46-2.16-5.12-3.38-2.49-1.83-4.88-3.88-7.14-6.13l-7.17-7.17c-10.47,6.72-10.48,21.83-10.48,55.81h61.2v-30.6c-2.96,0-5.91-.21-8.84-.63Z"/>
    <path class="st6" d="M427.85,428.4h-60.65v61.2h33.75c2.61-1.57,5.33-2.99,8.16-4.24,13.41-5.91,17.5-20.59,18.74-56.96Z"/>
    <rect class="st6" x="489.6" y="428.4" width="61.2" height="61.2"/>
    <path class="st6" d="M122.38,550.8h.02v-61.2h-61.2v.02c17.4,23.17,38.02,43.78,61.18,61.18Z"/>
    <path class="st6" d="M428.4,542.73v8.07h61.2v-61.2h-9.32c-8.13,26.08-23.37,43.79-51.88,53.13Z"/>
    <path class="st6" d="M183.6,550.8h-61.2c18.83,14.16,39.35,26.17,61.2,35.71v-35.71Z"/>
    <path class="st6" d="M244.8,550.8v55.07c19.77,4.01,40.24,6.13,61.2,6.13v-61.2h-61.2Z"/>
    <path class="st6" d="M428.4,550.8h-61.2v55.07c21.29-4.32,41.77-10.87,61.2-19.36v-35.71Z"/>
    <path class="st6" d="M270.83,218.95c-7.24,7.24-11.88,16.29-13.73,25.85h20.05c4.2-17.83,15.53-30.6,28.85-30.6v-9.89c-12.73.04-25.45,4.92-35.17,14.64h0Z"/>
  </g>
  <g id="Dark_Purple" class="st5">
    <path class="st4" d="M336.25,345.15c-.15-1.52-.36-3.01-.61-4.48-.63-3.67-1.55-7.16-2.73-10.41-.71-1.95-1.5-3.82-2.39-5.58-1.17-2.36-2.5-4.54-3.95-6.51-5.43-7.41-12.65-11.92-20.57-11.92s-15.14,4.52-20.57,11.92c-1.45,1.98-2.77,4.16-3.95,6.51-.88,1.77-1.68,3.63-2.39,5.58-1.18,3.25-2.1,6.74-2.73,10.41-.25,1.47-.46,2.96-.61,4.48-.23,2.28-.35,4.61-.35,6.99s.12,4.71.35,6.99c.15,1.52.36,3.01.61,4.48.63,3.67,1.55,7.16,2.73,10.41.71,1.95,1.5,3.82,2.39,5.58,1.17,2.36,2.5,4.54,3.95,6.51,5.43,7.41,12.65,11.92,20.57,11.92s15.14-4.52,20.57-11.92c1.45-1.98,2.77-4.16,3.95-6.51.88-1.77,1.68-3.63,2.39-5.58,1.18-3.25,2.1-6.74,2.73-10.41.25-1.47.46-2.96.61-4.48.23-2.28.35-4.61.35-6.99s-.12-4.71-.35-6.99Z"/>
    <path class="st4" d="M372.28,306.24l12.56-12.56c24.06-24.06,24.06-63.06,0-87.12l-35.28-35.28c-24.06-24.06-63.06-24.06-87.12,0l-35.28,35.28c-24.06,24.06-24.06,63.06,0,87.12l12.56,12.56-12.56,12.56c-24.06,24.06-24.06,63.06,0,87.12l35.28,35.28c24.06,24.06,63.06,24.06,87.12,0l35.28-35.28c24.06-24.06,24.06-63.06,0-87.12l-12.56-12.56ZM347.95,328.59l3.31,6.62c9.62,19.24,5.85,42.49-9.36,57.7l-.38.38c-19.52,19.52-51.17,19.52-70.69,0l-.73-.73c-15.04-15.04-18.92-37.96-9.66-57.11l4.24-8.77c6.86-14.18,6.63-30.75-.61-44.74l-2.3-4.43c-10.01-19.34-6.35-42.93,9.05-58.32h0c19.52-19.52,51.17-19.52,70.69,0l.38.38c15.21,15.21,18.99,38.46,9.36,57.7l-3.31,6.62c-7.04,14.07-7.04,30.64,0,44.71Z"/>
    <path class="st4" d="M336.25,253.35c-.15-1.52-.36-3.01-.61-4.48-.63-3.67-1.55-7.16-2.73-10.41-.71-1.95-1.5-3.82-2.39-5.58-1.17-2.36-2.5-4.54-3.95-6.51-5.43-7.41-12.65-11.92-20.57-11.92s-15.14,4.52-20.57,11.92c-1.45,1.98-2.77,4.16-3.95,6.51-.88,1.77-1.68,3.63-2.39,5.58-1.18,3.25-2.1,6.74-2.73,10.41-.25,1.47-.46,2.96-.61,4.48-.23,2.28-.35,4.61-.35,6.99,0,4.75.48,9.34,1.38,13.65.3,1.44.64,2.84,1.03,4.22.39,1.37.82,2.71,1.29,4.01.71,1.95,1.5,3.82,2.39,5.58,1.17,2.36,2.5,4.54,3.95,6.51,1.81,2.47,3.82,4.62,5.99,6.38,2.6,2.12,5.43,3.69,8.42,4.61,1.99.61,4.05.93,6.17.93s4.17-.32,6.17-.93c2.99-.92,5.82-2.49,8.42-4.61,2.17-1.77,4.18-3.91,5.99-6.38,1.45-1.98,2.77-4.16,3.95-6.51.88-1.77,1.68-3.63,2.39-5.58.47-1.3.9-2.64,1.29-4.01.39-1.37.73-2.78,1.03-4.22.89-4.31,1.38-8.9,1.38-13.65,0-2.38-.12-4.71-.35-6.99Z"/>
  </g>
  <g id="Magenta" class="st5">
    <path class="st2" d="M489.6,366.95h0c-33.31,0-60.65,26.43-61.69,59.72-1.18,37.65-5.18,52.68-18.8,58.69-25.12,11.07-41.91,35.22-41.91,62.67v2.52c122.4,0,122.4-61.2,122.4-183.6Z"/>
    <path class="st2" d="M122.4,244.55h0c33.31,0,60.65-26.43,61.69-59.72,1.18-37.65,5.18-52.68,18.8-58.69,25.12-11.07,41.91-35.22,41.91-62.67v-2.52c-122.4,0-122.4,61.2-122.4,183.6Z"/>
    <path class="st2" d="M255.28,433.54l-15.87-15.87c-6.72,10.47-21.83,10.48-55.81,10.48v61.2h61.2c0-33.98,0-49.08,10.48-55.81Z"/>
    <path class="st2" d="M306,305.75c-4.54,0-8.84-1.49-12.71-4.15-5.33,2.53-12.9,3.52-23.65,3.9-.15,7.08-1.79,14.14-4.95,20.69l-4.24,8.77c-9.26,19.15-5.39,42.07,9.66,57.11l.73.73c9.72,9.72,22.44,14.59,35.17,14.64v-9.89c-16.9,0-30.6-20.55-30.6-45.9s13.7-45.9,30.6-45.9Z"/>
    <path class="st2" d="M356.72,177.96l15.87,15.87c6.72-10.47,21.83-10.48,55.81-10.48v-61.2h-61.2c0,33.98,0,49.08-10.48,55.81Z"/>
    <path class="st2" d="M306,305.75c4.54,0,8.84,1.49,12.71,4.15,5.39-2.55,13.06-3.54,23.97-3.91-.04-7.74,1.72-15.48,5.27-22.59l3.31-6.62c9.62-19.24,5.85-42.49-9.36-57.7l-.38-.38c-9.81-9.81-22.67-14.68-35.52-14.64v9.89c16.9,0,30.6,20.55,30.6,45.9s-13.7,45.9-30.6,45.9Z"/>
  </g>
  <g id="Purple" class="st5">
    <path class="st1" d="M183.6,25.49c-21.85,9.55-42.37,21.55-61.2,35.7h0s61.2.01,61.2.01V25.49Z"/>
    <path class="st1" d="M244.8,6.13v55.07h61.2V0C285.04,0,264.57,2.11,244.8,6.13Z"/>
    <path class="st1" d="M367.2,61.2h61.2V25.49c-19.43-8.49-39.91-15.04-61.2-19.36v55.07Z"/>
    <path class="st1" d="M61.2,122.38v.02h61.2v-61.2h-.02c-23.17,17.4-43.78,38.02-61.18,61.18Z"/>
    <path class="st1" d="M210.22,122.4h34.58v-58.93c0,24.68-13.58,46.69-34.58,58.93Z"/>
    <path class="st1" d="M183.6,61.2v7.58c13.12-4.3,29.07-6.82,48.42-7.58h-48.42Z"/>
    <path class="st1" d="M61.2,183.6v-61.2h-.01c-14.15,18.83-26.15,39.35-35.7,61.2h35.71Z"/>
    <path class="st1" d="M122.4,122.4v61.2h.75c.98-23.89,3.22-44.29,8.42-61.2h-9.17Z"/>
    <path class="st1" d="M244.8,183.6h5.08l12.56-12.56c3.76-3.76,7.88-6.93,12.26-9.51,2.62-1.55,5.34-2.89,8.12-4.02s5.63-2.04,8.51-2.75c1.92-.47,3.87-.85,5.82-1.13,1.04-.15,2.09-.27,3.14-.37,1.9-.18,3.8-.27,5.71-.27v-30.6h-61.2v61.2Z"/>
    <rect class="st1" x="489.6" y="122.4" width="61.2" height="61.2"/>
    <rect class="st1" x="61.2" y="183.6" width="61.2" height="61.2"/>
    <path class="st1" d="M183.6,190.9v53.9h25.74c.07-.82.15-1.64.25-2.45.01-.09.02-.18.03-.28.1-.77.21-1.54.34-2.31.02-.13.04-.27.07-.4.13-.75.27-1.49.43-2.24.03-.14.06-.29.09-.43.16-.74.33-1.48.52-2.22.03-.12.07-.25.1-.37.2-.76.41-1.52.64-2.27,0-.02.01-.04.02-.07.73-2.38,1.61-4.71,2.63-7,.07-.16.14-.32.21-.48.25-.54.51-1.07.77-1.6.16-.33.32-.67.49-1,.24-.47.5-.94.75-1.4.21-.39.42-.77.64-1.15.25-.43.5-.85.76-1.28.25-.41.51-.82.77-1.23.25-.4.51-.79.78-1.18.29-.43.59-.86.89-1.28.26-.36.52-.72.79-1.08.34-.45.69-.9,1.04-1.35.26-.32.51-.65.77-.96.41-.5.84-.99,1.27-1.48.23-.26.44-.52.67-.77.67-.74,1.36-1.47,2.07-2.18l17.64-17.64v-5.08h-60.67c-.01.41-.03.81-.04,1.23-.06,2.05-.23,4.08-.49,6.07Z"/>
    <path class="st1" d="M550.8,183.6v61.2h55.07c-4.32-21.29-10.87-41.77-19.36-61.2h-35.71Z"/>
    <path class="st1" d="M61.2,306v-61.2H6.13c-4.01,19.77-6.13,40.24-6.13,61.2h61.2Z"/>
    <path class="st1" d="M275.4,260.1c0-5.37.62-10.51,1.75-15.3h-20.05c-2.08,10.78-.62,22.22,4.68,32.47l2.3,4.43c3.89,7.52,5.74,15.8,5.56,24.05,10.74-.39,18.31-1.37,23.65-3.9-10.55-7.24-17.89-23.21-17.89-41.75Z"/>
    <path class="st1" d="M402.84,247.98c0,.07,0,.14,0,.21.03,1,.03,1.99,0,2.99,0,.1,0,.21,0,.31-.03.97-.07,1.95-.15,2.92,0,.11-.01.22-.02.33-.08.99-.18,1.97-.3,2.96-.01.08-.02.17-.03.25-.14,1.05-.3,2.11-.49,3.15,0,0,0,0,0,.01-.59,3.21-1.44,6.39-2.55,9.49-.03.1-.07.19-.11.28-.32.89-.67,1.78-1.03,2.66-.1.25-.21.49-.32.74-.31.72-.63,1.44-.97,2.16-.15.31-.31.62-.46.93-.32.64-.65,1.28-.99,1.91-.19.34-.38.68-.57,1.02-.34.59-.69,1.18-1.05,1.77-.22.35-.43.7-.66,1.05-.36.57-.74,1.13-1.13,1.68-.24.35-.48.7-.72,1.04-.4.56-.82,1.1-1.24,1.65-.25.33-.5.66-.76.98-.47.58-.96,1.15-1.45,1.72-.23.27-.46.54-.7.81-.74.83-1.51,1.64-2.3,2.44l-12.56,12.56h0s56.12,0,56.12,0v-61.2h-25.74c.09,1.06.15,2.12.18,3.18Z"/>
    <rect class="st1" x="489.6" y="244.8" width="61.2" height="61.2"/>
    <rect class="st1" x="61.2" y="306" width="61.2" height="61.2"/>
    <path class="st1" d="M209.16,364.02c0-.07,0-.14,0-.22-.03-1-.03-1.99,0-2.99,0-.1,0-.21,0-.31.03-.97.07-1.95.15-2.92,0-.11.01-.22.02-.33.08-.99.18-1.97.3-2.96.01-.08.02-.17.03-.25.14-1.05.3-2.11.49-3.15,0,0,0,0,0-.01.59-3.21,1.44-6.39,2.55-9.49.03-.1.07-.19.11-.29.32-.89.67-1.78,1.03-2.66.1-.25.21-.49.32-.74.31-.72.63-1.44.97-2.16.15-.31.31-.62.46-.93.32-.64.65-1.28.99-1.91.19-.34.38-.68.57-1.02.34-.59.69-1.18,1.05-1.77.22-.35.43-.7.66-1.05.36-.57.74-1.13,1.13-1.68.24-.35.48-.69.72-1.04.4-.56.82-1.1,1.24-1.65.25-.33.5-.66.76-.98.47-.58.96-1.15,1.45-1.72.23-.27.46-.54.7-.81.74-.83,1.51-1.64,2.3-2.44l12.56-12.56h-56.12v61.2h25.74c-.09-1.06-.15-2.12-.18-3.18Z"/>
    <path class="st1" d="M336.6,351.9c0,5.37-.62,10.51-1.75,15.3h20.7c2.15-10.67.81-22.01-4.29-32.23l-3.31-6.62c-3.48-6.96-5.23-14.54-5.27-22.12-10.91.38-18.58,1.36-23.97,3.91,10.55,7.24,17.89,23.21,17.89,41.75Z"/>
    <path class="st1" d="M550.8,306v61.2h55.07c4.01-19.77,6.13-40.24,6.13-61.2h-61.2Z"/>
    <path class="st1" d="M61.2,428.4v-61.2H6.13c4.32,21.29,10.87,41.77,19.36,61.2h35.71Z"/>
    <path class="st1" d="M428.4,420.6v-53.4h-25.74c-.07.82-.15,1.64-.25,2.45-.01.09-.02.18-.03.28-.1.77-.21,1.54-.34,2.31-.02.13-.04.27-.07.4-.13.75-.27,1.49-.43,2.23-.03.14-.06.29-.09.43-.16.74-.33,1.48-.52,2.22-.03.12-.07.25-.1.37-.2.76-.41,1.52-.64,2.27,0,.02-.01.04-.02.07-.73,2.38-1.61,4.71-2.63,7.01-.07.16-.14.32-.21.48-.25.54-.51,1.07-.77,1.6-.16.33-.32.67-.49,1-.24.47-.5.94-.75,1.4-.21.39-.42.77-.64,1.15-.25.43-.5.85-.76,1.28-.25.41-.51.82-.77,1.23-.25.4-.51.79-.78,1.18-.29.43-.59.86-.9,1.28-.26.36-.52.72-.78,1.08-.34.45-.69.9-1.04,1.35-.26.32-.51.65-.77.96-.41.5-.84.99-1.27,1.48-.23.26-.44.52-.67.77-.67.74-1.36,1.47-2.07,2.18l-17.64,17.64v5.08h60.65c.02-.58.04-1.14.06-1.73.06-2.05.23-4.08.49-6.07Z"/>
    <rect class="st1" x="489.6" y="367.2" width="61.2" height="61.2"/>
    <rect class="st1" x="61.2" y="428.4" width="61.2" height="61.2"/>
    <path class="st1" d="M367.2,428.4h-5.08l-12.56,12.56c-2.26,2.26-4.64,4.3-7.14,6.13-1.66,1.22-3.37,2.35-5.12,3.38-1.75,1.03-3.54,1.97-5.36,2.82s-3.68,1.6-5.56,2.26c-1.88.66-3.79,1.22-5.71,1.69s-3.87.85-5.82,1.13c-2.93.42-5.89.63-8.84.63v30.6h61.2v-61.2Z"/>
    <path class="st1" d="M480.28,489.6h9.32v-61.2h-.77c-1,23.91-3.29,44.31-8.55,61.2Z"/>
    <path class="st1" d="M550.8,428.4v61.2h.01c14.15-18.83,26.15-39.35,35.7-61.2h-35.71Z"/>
    <path class="st1" d="M367.2,550.8h61.2v-8.07c-15.91,5.21-35.94,7.83-61.2,7.83v.25Z"/>
    <path class="st1" d="M400.95,489.6h-33.75v58.43c0-24.35,13.23-46.1,33.75-58.43Z"/>
    <path class="st1" d="M550.8,489.62v-.02h-61.2v61.2h.02c23.17-17.4,43.78-38.02,61.18-61.18Z"/>
    <path class="st1" d="M244.8,550.8h-61.2v35.71c19.43,8.49,39.91,15.04,61.2,19.36v-55.07Z"/>
    <path class="st1" d="M367.2,550.8h-61.2v61.2c20.96,0,41.43-2.11,61.2-6.13v-55.07Z"/>
    <path class="st1" d="M489.6,550.8h-61.2v35.71c21.85-9.55,42.37-21.55,61.2-35.7h0Z"/>
    <polygon class="st1" points="489.6 122.4 489.6 61.2 428.4 61.2 489.6 122.4"/>
    <polygon class="st1" points="122.4 489.6 122.4 550.8 183.6 550.8 122.4 489.6"/>
  </g>
  <g id="Pink" class="st5">
    <polygon class="st3" points="244.8 489.35 183.6 489.35 183.6 428.15 183.6 244.55 122.4 244.55 122.4 489.35 183.6 550.55 367.2 550.55 367.2 489.35 244.8 489.35"/>
    <polygon class="st3" points="428.4 60.95 244.8 60.95 244.8 122.15 367.2 122.15 428.4 122.15 428.4 183.35 428.4 366.95 489.6 366.95 489.6 122.15 428.4 60.95"/>
  </g>
</svg>